<svg width="18" height="18" viewBox="0 0 18 18" fill="none" xmlns="http://www.w3.org/2000/svg">
<g clip-path="url(#clip0_8_161)">
<path d="M17.6801 3.40412C17.4469 3.12842 17.1203 2.96003 16.7604 2.92997L4.08461 1.87156C3.72468 1.8415 3.37474 1.9534 3.09901 2.18659C2.82441 2.41887 2.65626 2.74382 2.62525 3.10195L2.37022 5.49454H1.35193C0.606478 5.49454 0 6.10101 0 6.84646V14.7813C0 15.5267 0.606478 16.1332 1.35193 16.1332H14.0719C14.8174 16.1332 15.4238 15.5267 15.4238 14.7813V13.4941L15.8752 13.5318C15.9133 13.535 15.9511 13.5365 15.9887 13.5365C16.6836 13.5365 17.2761 13.0018 17.335 12.297L17.9952 4.38976C18.0252 4.02986 17.9133 3.67985 17.6801 3.40412ZM1.35193 6.19766H14.0719C14.4296 6.19766 14.7207 6.48872 14.7207 6.84646V7.56949H0.703122V6.84646C0.703122 6.48872 0.99418 6.19766 1.35193 6.19766ZM0.703122 8.27261H14.7207V9.7312H0.703122V8.27261ZM14.0719 15.4301H1.35193C0.99418 15.4301 0.703122 15.139 0.703122 14.7813V10.4343H14.7207V14.7813C14.7207 15.139 14.4296 15.4301 14.0719 15.4301ZM17.2945 4.33122L16.6343 12.2385C16.6045 12.595 16.2901 12.861 15.9337 12.8311L15.4238 12.7885V6.84646C15.4238 6.10101 14.8174 5.49454 14.0719 5.49454H3.07735L3.32482 3.17283C3.3251 3.17015 3.32535 3.16752 3.32556 3.16481C3.35533 2.80829 3.66949 2.54237 4.02611 2.57225L16.7019 3.63066C16.8747 3.64508 17.0314 3.7259 17.1433 3.85823C17.2552 3.99056 17.3089 4.1585 17.2945 4.33122Z" fill="white"/>
<path d="M13.2494 11.4796H9.8659C9.67173 11.4796 9.51433 11.637 9.51433 11.8311V14.0386C9.51433 14.2327 9.67173 14.3901 9.8659 14.3901H13.2494C13.4436 14.3901 13.601 14.2327 13.601 14.0386V11.8311C13.601 11.637 13.4436 11.4796 13.2494 11.4796ZM12.8978 13.687H10.2175V12.1827H12.8978V13.687Z" fill="white"/>
</g>
<defs>
<clipPath id="clip0_8_161">
<rect width="18" height="18" fill="white"/>
</clipPath>
</defs>
</svg>
