<svg width="18" height="18" viewBox="0 0 18 18" fill="none" xmlns="http://www.w3.org/2000/svg">
<g clip-path="url(#clip0_8_220)">
<path d="M15.0552 6.9C15.117 7.07487 15.2314 7.22637 15.3826 7.33377C15.5338 7.44117 15.7145 7.49923 15.9 7.5H17.1C17.3387 7.5 17.5676 7.40518 17.7364 7.2364C17.9052 7.06761 18 6.8387 18 6.6V0.9C18 0.661305 17.9052 0.432387 17.7364 0.263604C17.5676 0.0948212 17.3387 0 17.1 0L15.9 0C15.7145 0.00076889 15.5338 0.0588252 15.3826 0.166226C15.2314 0.273627 15.117 0.425127 15.0552 0.6H8.8287C8.44136 0.59969 8.06144 0.706193 7.7307 0.9078L2.8875 3.8589C2.6988 3.97274 2.55261 4.14527 2.47131 4.3501C2.39 4.55493 2.37806 4.78076 2.43731 4.99301C2.49656 5.20527 2.62374 5.39227 2.79937 5.52537C2.97501 5.65847 3.18943 5.73035 3.4098 5.73C3.6825 5.73 3.8034 5.64 4.5846 5.3916C3.93936 6.18059 3.51776 7.12834 3.36383 8.13589C3.20989 9.14344 3.32927 10.1738 3.7095 11.1195C3.45522 11.0976 3.19986 11.0911 2.9448 11.1C2.88298 10.9251 2.76863 10.7736 2.61741 10.6662C2.46619 10.5588 2.28548 10.5008 2.1 10.5H0.9C0.661305 10.5 0.432387 10.5948 0.263604 10.7636C0.0948212 10.9324 0 11.1613 0 11.4L0 17.1C0 17.3387 0.0948212 17.5676 0.263604 17.7364C0.432387 17.9052 0.661305 18 0.9 18H2.1C2.28548 17.9992 2.46619 17.9412 2.61741 17.8338C2.76863 17.7264 2.88298 17.5749 2.9448 17.4H9.171C9.55834 17.4003 9.93826 17.2938 10.269 17.0922L15.1122 14.1411C15.325 14.0131 15.4831 13.811 15.5561 13.5736C15.6291 13.3363 15.6119 13.0803 15.5078 12.8548C15.4037 12.6293 15.2201 12.4502 14.992 12.3518C14.764 12.2534 14.5077 12.2426 14.2722 12.3216L13.416 12.6078C14.0611 11.8188 14.4826 10.8711 14.6364 9.8636C14.7903 8.85612 14.6709 7.82581 14.2908 6.8802C14.545 6.90201 14.8002 6.90863 15.0552 6.9ZM15.9 0.6H17.1C17.1796 0.6 17.2559 0.631607 17.3121 0.687868C17.3684 0.744129 17.4 0.820435 17.4 0.9V6.6C17.4 6.67957 17.3684 6.75587 17.3121 6.81213C17.2559 6.86839 17.1796 6.9 17.1 6.9H15.9C15.8204 6.9 15.7441 6.86839 15.6879 6.81213C15.6316 6.75587 15.6 6.67957 15.6 6.6V0.9C15.6 0.820435 15.6316 0.744129 15.6879 0.687868C15.7441 0.631607 15.8204 0.6 15.9 0.6ZM3.5379 5.1093C3.44269 5.14042 3.33936 5.13549 3.24755 5.09543C3.15574 5.05537 3.08184 4.98299 3.0399 4.89203C2.99795 4.80106 2.99088 4.69786 3.02003 4.60203C3.04918 4.50619 3.11251 4.4244 3.198 4.3722L8.0433 1.4199C8.27985 1.27567 8.55165 1.19957 8.8287 1.2H15V6.3H14.6037C13.2201 6.3 12.9117 5.1 11.4777 5.1H10.0407C9.3921 5.1 8.7366 4.4043 9.1338 3.9H11.2977C11.8929 3.89307 12.4701 3.69445 12.9435 3.3336C13.0097 3.2894 13.0556 3.22072 13.0712 3.14265C13.0867 3.06459 13.0706 2.98355 13.0265 2.91735C12.9823 2.85115 12.9136 2.80522 12.8355 2.78967C12.7574 2.77411 12.6764 2.7902 12.6102 2.8344C12.2357 3.12949 11.7745 3.29311 11.2977 3.3H9.0987C9.00152 3.3036 8.90512 3.31891 8.8116 3.3456L3.5379 5.1093ZM2.1 17.4H0.9C0.820435 17.4 0.744129 17.3684 0.687868 17.3121C0.631607 17.2559 0.6 17.1796 0.6 17.1V11.4C0.6 11.3204 0.631607 11.2441 0.687868 11.1879C0.744129 11.1316 0.820435 11.1 0.9 11.1H2.1C2.17956 11.1 2.25587 11.1316 2.31213 11.1879C2.36839 11.2441 2.4 11.3204 2.4 11.4V17.1C2.4 17.1796 2.36839 17.2559 2.31213 17.3121C2.25587 17.3684 2.17956 17.4 2.1 17.4ZM14.4618 12.8907C14.557 12.8596 14.6603 12.8645 14.7521 12.9046C14.844 12.9446 14.9179 13.017 14.9598 13.108C15.0017 13.1989 15.0088 13.3021 14.9797 13.398C14.9505 13.4938 14.8872 13.5756 14.8017 13.6278L9.9567 16.5801C9.72001 16.7243 9.44814 16.8004 9.171 16.8H3V11.7H3.396C4.7793 11.7 5.0874 12.9 6.522 12.9H7.959C8.6064 12.9 9.2631 13.5957 8.8659 14.1H6.702C6.10679 14.1068 5.52968 14.3056 5.0565 14.6667C4.99243 14.7117 4.94852 14.78 4.93413 14.857C4.91974 14.934 4.93603 15.0135 4.9795 15.0787C5.02298 15.1438 5.0902 15.1894 5.16681 15.2056C5.24341 15.2218 5.32334 15.2075 5.3895 15.1656C5.76402 14.8705 6.22525 14.7069 6.702 14.7H8.901C8.99818 14.6964 9.09457 14.681 9.1881 14.6544L14.4618 12.8907ZM12.0993 13.0482L9.5865 13.8882C9.6726 13.1682 8.9451 12.2982 7.959 12.2982H6.522C5.6607 12.2982 5.1669 11.5995 4.4535 11.3082C3.91187 10.2466 3.76006 9.02865 4.02454 7.86663C4.28901 6.7046 4.953 5.67228 5.9007 4.9497L8.4132 4.1097C8.3271 4.8297 9.0549 5.6997 10.0407 5.6997H11.4777C12.3657 5.6997 12.774 6.3747 13.5477 6.6897C14.0893 7.75137 14.2409 8.96947 13.9762 10.1315C13.7115 11.2936 13.0473 12.3258 12.0993 13.0482Z" fill="white"/>
<path d="M7.95 4.92356C7.92469 4.84814 7.87046 4.78586 7.79924 4.75041C7.72801 4.71497 7.64563 4.70927 7.5702 4.73456C6.98279 4.93149 6.44237 5.2476 5.98279 5.66308C5.52321 6.07856 5.15438 6.58446 4.89939 7.1491C4.6444 7.71374 4.50876 8.32495 4.50095 8.94444C4.49313 9.56394 4.61333 10.1784 4.854 10.7493C4.88511 10.8225 4.94404 10.8804 5.01783 10.9102C5.09161 10.94 5.17421 10.9392 5.24745 10.9081C5.32069 10.877 5.37857 10.8181 5.40836 10.7443C5.43815 10.6705 5.43741 10.5879 5.4063 10.5147C5.19796 10.02 5.09398 9.48759 5.10087 8.95085C5.10776 8.41412 5.22538 7.88458 5.44636 7.3954C5.66734 6.90622 5.98692 6.46792 6.3851 6.10794C6.78328 5.74796 7.25148 5.47405 7.7604 5.30336C7.7978 5.29089 7.83237 5.27117 7.86215 5.24533C7.89192 5.21949 7.91631 5.18803 7.93392 5.15276C7.95153 5.11749 7.96201 5.07909 7.96477 5.03976C7.96753 5.00043 7.96251 4.96095 7.95 4.92356Z" fill="white"/>
<path d="M12.5937 7.48532C12.802 7.98002 12.906 8.5124 12.8991 9.04913C12.8922 9.58587 12.7746 10.1154 12.5536 10.6046C12.3327 11.0938 12.0131 11.5321 11.6149 11.892C11.2167 12.252 10.7485 12.5259 10.2396 12.6966C10.164 12.7219 10.1016 12.7762 10.066 12.8476C10.0305 12.9189 10.0247 13.0014 10.05 13.077C10.0753 13.1526 10.1296 13.215 10.2009 13.2506C10.2723 13.2862 10.3548 13.2919 10.4304 13.2666C11.0179 13.0696 11.5584 12.7535 12.018 12.3379C12.4776 11.9223 12.8465 11.4162 13.1014 10.8515C13.3564 10.2867 13.4919 9.67535 13.4996 9.05575C13.5073 8.43615 13.3869 7.82164 13.146 7.25072C13.1149 7.17748 13.056 7.1196 12.9822 7.08981C12.9084 7.06002 12.8258 7.06076 12.7526 7.09187C12.6793 7.12298 12.6214 7.18191 12.5916 7.2557C12.5619 7.32949 12.5626 7.41208 12.5937 7.48532Z" fill="white"/>
<path d="M10.8 10.05C10.8 9.3699 10.1613 8.8239 9.3 8.7195V7.2279C9.81 7.314 10.2 7.6083 10.2 7.95C10.2 8.02957 10.2316 8.10587 10.2879 8.16213C10.3441 8.21839 10.4204 8.25 10.5 8.25C10.5796 8.25 10.6559 8.21839 10.7121 8.16213C10.7684 8.10587 10.8 8.02957 10.8 7.95C10.8 7.2699 10.1613 6.7239 9.3 6.6195V6.3C9.3 6.22044 9.26839 6.14413 9.21213 6.08787C9.15587 6.03161 9.07956 6 9 6C8.92043 6 8.84413 6.03161 8.78787 6.08787C8.73161 6.14413 8.7 6.22044 8.7 6.3V6.6195C7.8387 6.7239 7.2 7.2699 7.2 7.95C7.2 8.6301 7.8387 9.1761 8.7 9.2805V10.7721C8.19 10.686 7.8 10.3917 7.8 10.05C7.8 9.97044 7.76839 9.89413 7.71213 9.83787C7.65587 9.78161 7.57956 9.75 7.5 9.75C7.42043 9.75 7.34413 9.78161 7.28787 9.83787C7.23161 9.89413 7.2 9.97044 7.2 10.05C7.2 10.7301 7.8387 11.2761 8.7 11.3805V11.7C8.7 11.7796 8.73161 11.8559 8.78787 11.9121C8.84413 11.9684 8.92043 12 9 12C9.07956 12 9.15587 11.9684 9.21213 11.9121C9.26839 11.8559 9.3 11.7796 9.3 11.7V11.3805C10.1613 11.2761 10.8 10.7301 10.8 10.05ZM7.8 7.95C7.8 7.6083 8.19 7.314 8.7 7.2279V8.6721C8.19 8.586 7.8 8.2917 7.8 7.95ZM9.3 10.7721V9.3279C9.81 9.414 10.2 9.7083 10.2 10.05C10.2 10.3917 9.81 10.686 9.3 10.7721Z" fill="white"/>
</g>
<defs>
<clipPath id="clip0_8_220">
<rect width="18" height="18" fill="white"/>
</clipPath>
</defs>
</svg>
