<svg width="18" height="18" viewBox="0 0 18 18" fill="none" xmlns="http://www.w3.org/2000/svg">
<g clip-path="url(#clip0_8_167)">
<path fill-rule="evenodd" clip-rule="evenodd" d="M16.235 14.3539C17.3441 12.8578 18 11.0055 18 9C18 4.0294 13.9705 0 9 0C4.0294 0 0 4.0294 0 9C0 13.9705 4.0294 18 9 18C11.6078 18 13.9565 16.8909 15.6004 15.1186C15.8255 14.8757 16.0374 14.6205 16.235 14.3539ZM15.736 13.5C16.5975 12.2129 17.0999 10.6651 17.0999 9C17.0999 4.5265 13.4735 0.899981 8.9999 0.899981C4.5265 0.899981 0.899981 4.5265 0.899981 9C0.899981 10.6652 1.4024 12.2129 2.26401 13.5C3.35099 11.8761 5.00963 10.6672 6.95206 10.1612C6.01418 9.51125 5.39998 8.4274 5.39998 7.19994C5.39998 5.21174 7.0118 3.59992 9 3.59992C10.9882 3.59992 12.6 5.21174 12.6 7.19994C12.6 8.4273 11.9857 9.51125 11.0479 10.1611C12.9903 10.6672 14.649 11.876 15.736 13.5ZM15.1563 14.2643C13.8932 12.1873 11.6087 10.8 9.00009 10.8C6.39142 10.8 4.1068 12.1873 2.84373 14.2644C4.32933 16 6.53616 17.1 9 17.1C11.4638 17.1 13.6707 15.9999 15.1563 14.2643ZM9 9.89998C10.4912 9.89998 11.7 8.69124 11.7 7.19994C11.7 5.70874 10.4913 4.4999 9 4.4999C7.50871 4.4999 6.29996 5.70884 6.29996 7.20004C6.29996 8.69124 7.5088 9.89998 9 9.89998Z" fill="white"/>
</g>
<defs>
<clipPath id="clip0_8_167">
<rect width="18" height="18" fill="white"/>
</clipPath>
</defs>
</svg>
