<svg width="65" height="65" viewBox="0 0 65 65" fill="none" xmlns="http://www.w3.org/2000/svg">
<path fill-rule="evenodd" clip-rule="evenodd" d="M26.9318 8.80206H38.0684C43.0463 8.80206 46.9897 8.80206 50.0745 9.21644C53.2486 9.64435 55.8188 10.5435 57.8474 12.5694C59.8732 14.5979 60.7724 17.1681 61.2003 20.3423C61.4441 22.165 61.5443 24.2856 61.5849 26.7421C61.6185 26.9481 61.6221 27.1579 61.5957 27.365C61.612 28.8961 61.6183 30.5572 61.6147 32.3483V32.6516C61.6147 37.6296 61.6147 41.5729 61.2003 44.6577C60.7724 47.8319 59.8732 50.4021 57.8474 52.4306C55.8188 54.4564 53.2486 55.3556 50.0745 55.7835C46.987 56.1979 43.0463 56.1979 38.0684 56.1979H26.9318C21.9538 56.1979 18.0105 56.1979 14.9257 55.7835C11.7515 55.3556 9.18134 54.4564 7.1528 52.4306C5.12696 50.4021 4.2278 47.8319 3.79988 44.6577C3.38551 41.5702 3.38551 37.6296 3.38551 32.6516V32.3483C3.3819 30.5572 3.38821 28.8961 3.40446 27.365C3.37715 27.158 3.37989 26.9482 3.41259 26.7421C3.45592 24.2856 3.55613 22.165 3.79988 20.3423C4.2278 17.1681 5.12696 14.5979 7.1528 12.5694C9.18134 10.5435 11.7515 9.64435 14.9257 9.21644C18.0132 8.80206 21.9538 8.80206 26.9318 8.80206ZM7.45342 29.1146C7.44981 30.1654 7.44801 31.2939 7.44801 32.5C7.44801 37.6648 7.45342 41.3346 7.82717 44.1187C8.1928 46.8406 8.88071 48.4114 10.0263 49.5571C11.172 50.7027 12.7428 51.3906 15.4674 51.7562C18.2515 52.13 21.9186 52.1354 27.0834 52.1354H37.9168C43.0816 52.1354 46.7513 52.13 49.5355 51.7562C52.2574 51.3906 53.8282 50.7027 54.9738 49.5571C56.1195 48.4114 56.8074 46.8406 57.173 44.116C57.5468 41.3319 57.5522 37.6648 57.5522 32.5C57.5522 31.2939 57.5504 30.1654 57.5468 29.1146H7.45342ZM57.4818 25.0521H7.51842C7.57259 23.4623 7.66467 22.0891 7.82717 20.8812C8.1928 18.1594 8.88071 16.5885 10.0263 15.4429C11.172 14.2973 12.7428 13.6094 15.4674 13.2437C18.2515 12.87 21.9186 12.8646 27.0834 12.8646H37.9168C43.0816 12.8646 46.7513 12.87 49.5355 13.2437C52.2574 13.6094 53.8282 14.2973 54.9738 15.4429C56.1195 16.5885 56.8074 18.1594 57.173 20.8839C57.3355 22.0891 57.4276 23.4623 57.4818 25.0521ZM14.2188 43.3333C14.2188 42.7946 14.4328 42.2779 14.8138 41.897C15.1947 41.5161 15.7114 41.3021 16.2501 41.3021H27.0834C27.6221 41.3021 28.1388 41.5161 28.5197 41.897C28.9007 42.2779 29.1147 42.7946 29.1147 43.3333C29.1147 43.872 28.9007 44.3887 28.5197 44.7696C28.1388 45.1506 27.6221 45.3646 27.0834 45.3646H16.2501C15.7114 45.3646 15.1947 45.1506 14.8138 44.7696C14.4328 44.3887 14.2188 43.872 14.2188 43.3333ZM31.823 43.3333C31.823 42.7946 32.037 42.2779 32.4179 41.897C32.7989 41.5161 33.3155 41.3021 33.8543 41.3021H37.9168C38.4555 41.3021 38.9721 41.5161 39.3531 41.897C39.734 42.2779 39.948 42.7946 39.948 43.3333C39.948 43.872 39.734 44.3887 39.3531 44.7696C38.9721 45.1506 38.4555 45.3646 37.9168 45.3646H33.8543C33.3155 45.3646 32.7989 45.1506 32.4179 44.7696C32.037 44.3887 31.823 43.872 31.823 43.3333Z" fill="#583A01"/>
</svg>
