<svg width="15" height="15" viewBox="0 0 15 15" fill="none" xmlns="http://www.w3.org/2000/svg">
<path d="M4.99313 2.1872C4.91135 2.27091 4.86557 2.38329 4.86557 2.50032C4.86557 2.61735 4.91135 2.72973 4.99313 2.81345L9.56157 7.50001L4.99313 12.1856C4.91135 12.2693 4.86557 12.3817 4.86557 12.4988C4.86557 12.6158 4.91135 12.7282 4.99313 12.8119C5.03288 12.8527 5.0804 12.8852 5.13289 12.9073C5.18538 12.9295 5.24178 12.9409 5.29876 12.9409C5.35573 12.9409 5.41213 12.9295 5.46462 12.9073C5.51711 12.8852 5.56464 12.8527 5.60438 12.8119L10.4625 7.8272C10.5478 7.73966 10.5956 7.62225 10.5956 7.50001C10.5956 7.37777 10.5478 7.26036 10.4625 7.17282L5.60438 2.18813C5.56464 2.14731 5.51711 2.11487 5.46462 2.09271C5.41213 2.07056 5.35573 2.05914 5.29876 2.05914C5.24178 2.05914 5.18538 2.07056 5.13289 2.09271C5.0804 2.11487 5.03288 2.14731 4.99313 2.18813V2.1872Z" fill="white"/>
</svg>
