<svg xmlns="http://www.w3.org/2000/svg" xmlns:xlink="http://www.w3.org/1999/xlink" fill="none" version="1.1" width="10.5" height="14" viewBox="0 0 10.5 14"><g transform="matrix(1,0,0,-1,0,28)"><g><path d="M1.75,28Q1.01172,27.9727,0.519531,27.4805Q0.0273438,26.988300000000002,0,26.25L0,15.75Q0.0273438,15.01172,0.519531,14.519531Q1.01172,14.0273438,1.75,14L8.75,14Q9.48828,14.0273438,9.98047,14.519531Q10.4727,15.01172,10.5,15.75L10.5,23.625L7,23.625Q6.61719,23.625,6.37109,23.871090000000002Q6.125,24.1172,6.125,24.5L6.125,28L1.75,28ZM7,28L7,24.5L7,28L7,24.5L10.5,24.5L7,28ZM4.26562,21.16406L5.25,19.74219L4.26562,21.16406L5.25,19.74219L6.23438,21.16406Q6.64453,21.62891,7.16406,21.32812Q7.60156,20.91797,7.32812,20.39844L6.04297,18.59375L7.32812,16.78906Q7.62891,16.26953,7.16406,15.85938Q6.64453,15.55859,6.23438,16.02344L5.25,17.44531L4.26562,16.02344Q3.85547,15.55859,3.33594,15.85938Q2.89844,16.26953,3.17188,16.78906L4.45703,18.59375L3.17188,20.39844Q2.87109,20.91797,3.33594,21.32812Q3.85547,21.62891,4.26562,21.16406Z" fill="#FFFFFF" fill-opacity="1" style="mix-blend-mode:passthrough"/></g></g></svg>