<svg width="24" height="24" viewBox="0 0 24 24" fill="none" xmlns="http://www.w3.org/2000/svg">
<path d="M13.5 15H6C4.114 15 3.172 15 2.586 14.414C2 13.828 2 12.886 2 11V7C2 5.114 2 4.172 2.586 3.586C3.172 3 4.114 3 6 3H18C19.886 3 20.828 3 21.414 3.586C22 4.172 22 5.114 22 7V12C22 12.932 22 13.398 21.848 13.765C21.7475 14.0078 21.6001 14.2284 21.4143 14.4143C21.2284 14.6001 21.0078 14.7475 20.765 14.848C20.398 15 19.932 15 19 15" stroke="black" stroke-width="1.5" stroke-linecap="round" stroke-linejoin="round"/>
<path d="M13 17C13 16.2044 13.3161 15.4413 13.8787 14.8787C14.4413 14.3161 15.2044 14 16 14V12C16 11.2044 16.3161 10.4413 16.8787 9.87868C17.4413 9.31607 18.2044 9 19 9V14.5C19 16.835 19 18.002 18.528 18.886C18.1551 19.5837 17.5837 20.1551 16.886 20.528C16.002 21 14.835 21 12.5 21H12C10.136 21 9.204 21 8.47 20.695C7.98455 20.4942 7.5434 20.1997 7.17175 19.8284C6.80011 19.4571 6.50524 19.0163 6.304 18.531C6 17.796 6 16.864 6 15M14 9C14 9.53043 13.7893 10.0391 13.4142 10.4142C13.0391 10.7893 12.5304 11 12 11C11.4696 11 10.9609 10.7893 10.5858 10.4142C10.2107 10.0391 10 9.53043 10 9C10 8.46957 10.2107 7.96086 10.5858 7.58579C10.9609 7.21071 11.4696 7 12 7C12.5304 7 13.0391 7.21071 13.4142 7.58579C13.7893 7.96086 14 8.46957 14 9Z" stroke="black" stroke-width="1.5" stroke-linecap="round" stroke-linejoin="round"/>
</svg>
