<svg width="24" height="24" viewBox="0 0 24 24" fill="none" xmlns="http://www.w3.org/2000/svg">
<path d="M11.9999 2V4M7.49993 3.5L8.99993 5M16.4999 3.5L14.9999 5M14.2649 18.372C14.5809 17.407 14.7389 16.925 15.0619 16.593C15.2159 16.4343 15.3916 16.3057 15.5889 16.207C15.9999 16 16.4999 16 17.4999 16C18.4999 16 18.9999 16 19.4119 16.207C19.6079 16.3057 19.7836 16.4343 19.9389 16.593C20.2619 16.925 20.4189 17.407 20.7359 18.372L21.0619 19.367C21.4559 20.569 21.6529 21.169 21.3589 21.585C21.0639 22 20.4419 22 19.1969 22H15.8039C14.5589 22 13.9359 22 13.6419 21.585C13.3469 21.169 13.5439 20.569 13.9379 19.367L14.2649 18.372ZM8.76393 10.372C9.07993 9.407 9.23893 8.925 9.56093 8.593C9.71626 8.43433 9.89193 8.30567 10.0879 8.207C10.4999 8 10.9999 8 11.9999 8C12.9999 8 13.4999 8 13.9119 8.207C14.1079 8.30567 14.2836 8.43433 14.4389 8.593C14.7609 8.925 14.9189 9.407 15.2359 10.372L15.5619 11.367C15.9559 12.569 16.1519 13.169 15.8589 13.585C15.5639 14 14.9419 14 13.6959 14H10.3039C9.05793 14 8.43593 14 8.14193 13.585C7.84693 13.169 8.04393 12.569 8.43793 11.367L8.76393 10.372ZM3.26393 18.372C3.58093 17.407 3.73893 16.925 4.06193 16.593C4.21593 16.4343 4.39159 16.3057 4.58893 16.207C4.99993 16 5.49993 16 6.49993 16C7.49993 16 7.99993 16 8.41193 16.207C8.60793 16.3057 8.78359 16.4343 8.93893 16.593C9.26193 16.925 9.41893 17.407 9.73593 18.372L10.0619 19.367C10.4559 20.569 10.6529 21.169 10.3589 21.585C10.0639 22 9.44193 22 8.19693 22H4.80393C3.55893 22 2.93593 22 2.64193 21.585C2.34693 21.169 2.54393 20.569 2.93793 19.367L3.26393 18.372Z" stroke="black" stroke-width="1.5" stroke-linecap="round" stroke-linejoin="round"/>
</svg>
