<svg width="16" height="16" viewBox="0 0 16 16" fill="none" xmlns="http://www.w3.org/2000/svg">
<path d="M15 2.328L14.36 2.5155L2.906 6H1V10H2.9065L3.8905 10.297L3.8755 10.3435V10.3595C3.5545 11.4155 4.149 12.5895 5.2505 12.9215C5.2555 12.923 5.2615 12.92 5.2655 12.9215C6.327 13.244 7.502 12.6565 7.8285 11.5465L7.8435 11.4995L14.36 13.4845L15 13.6715V2.328ZM14 3.672V12.328L3.14 9.015L3.0785 9H2V7H3.078L3.1405 6.985L14 3.672ZM4.8435 10.5935L6.8905 11.2035L6.8755 11.25V11.265C6.7035 11.85 6.0825 12.136 5.5475 11.9685C4.9625 11.797 4.6615 11.1915 4.8285 10.656V10.641L4.8435 10.5935Z" fill="black"/>
</svg>
