<svg width="16" height="16" viewBox="0 0 16 16" fill="none" xmlns="http://www.w3.org/2000/svg">
<path fill-rule="evenodd" clip-rule="evenodd" d="M14 2.66675V12.0001H10.6667V14.6667L6.6 12.0001H2V2.66675H14ZM12.6667 4.00009H3.33334V10.6667H6.99819L9.33334 12.1981V10.6667H12.6667V4.00009ZM8.02922 8.95009C8.24276 8.95009 8.4192 9.0204 8.55853 9.16103C8.69786 9.30165 8.76752 9.47874 8.7675 9.69228C8.7675 9.90322 8.69784 10.079 8.55853 10.2196C8.41918 10.3602 8.24274 10.4306 8.02922 10.4306C7.81047 10.4306 7.63208 10.3602 7.49406 10.2196C7.35604 10.079 7.28703 9.89931 7.28703 9.68056C7.28703 9.47223 7.35734 9.29839 7.49797 9.15906C7.63859 9.01973 7.81568 8.95007 8.02922 8.95009ZM8.31828 4.70009C8.91203 4.70009 9.36385 4.84072 9.67375 5.12197C9.94719 5.37457 10.0839 5.7027 10.0839 6.10634C10.0839 6.37978 10.0175 6.6135 9.88469 6.8075C9.76846 6.97725 9.5725 7.15947 9.29681 7.35415L9.17375 7.43837C8.91333 7.61285 8.75318 7.74631 8.69328 7.83875C8.63339 7.93123 8.60344 8.09595 8.60344 8.3329V8.49306H7.45109V8.14931C7.45109 7.81856 7.48495 7.58809 7.55266 7.4579C7.59172 7.38236 7.6438 7.3153 7.70891 7.25672L7.78162 7.19612C7.81148 7.17248 7.84698 7.14537 7.88812 7.11481L8.30719 6.81481C8.48417 6.68494 8.60441 6.58289 8.66791 6.50869C8.75253 6.40973 8.79484 6.29384 8.79484 6.16103C8.79484 5.99436 8.7356 5.8622 8.61712 5.76453C8.49862 5.66688 8.33781 5.61806 8.13469 5.61806C7.80135 5.61806 7.39901 5.75217 6.92766 6.0204L6.58 5.15322C7.15812 4.85113 7.73755 4.70009 8.31828 4.70009Z" fill="black"/>
</svg>
