<svg width="16" height="16" viewBox="0 0 16 16" fill="none" xmlns="http://www.w3.org/2000/svg">
<path fill-rule="evenodd" clip-rule="evenodd" d="M2.5 1.04504C2.36739 1.04504 2.24021 1.09772 2.14645 1.19149C2.05268 1.28526 2 1.41244 2 1.54504V12.455C2 12.5877 2.05268 12.7148 2.14645 12.8086C2.24021 12.9024 2.36739 12.955 2.5 12.955H11.5C11.6326 12.955 11.7598 12.9024 11.8536 12.8086C11.9473 12.7148 12 12.5877 12 12.455V5.36404C12.0001 5.29691 11.9867 5.23043 11.9606 5.16858C11.9345 5.10673 11.8962 5.05077 11.848 5.00404L7.911 1.18804C7.81788 1.09725 7.69305 1.04632 7.563 1.04604L2.5 1.04504ZM10.266 4.86404L8.063 2.72704V4.86404H10.266ZM6 5.50004H4V4.50004H6V5.50004ZM10 8.00004H4V7.00004H10V8.00004ZM4 10.5H10V9.50004H4V10.5Z" fill="black"/>
<path d="M13 7.5V14H4.5V15H13.5C13.6326 15 13.7598 14.9473 13.8536 14.8536C13.9473 14.7598 14 14.6326 14 14.5V7.5H13Z" fill="black"/>
</svg>
