<svg width="25" height="25" viewBox="0 0 25 25" fill="none" xmlns="http://www.w3.org/2000/svg">
<path d="M10.9375 10.9375L14.0625 14.0625M14.0625 10.9375L10.9375 14.0625" stroke="#344054" stroke-linecap="round" stroke-linejoin="round"/>
<path d="M7.2915 3.125H18.75C19.0262 3.125 19.2911 3.23473 19.4864 3.43005C19.6818 3.62537 19.7915 3.89028 19.7915 4.1665V20.8335C19.7915 21.1097 19.6818 21.3746 19.4864 21.57C19.2911 21.7653 19.0262 21.875 18.75 21.875H6.25C5.97377 21.875 5.70886 21.7653 5.51354 21.57C5.31823 21.3746 5.2085 21.1097 5.2085 20.8335V5.2085M7.2915 3.125L5.2085 5.2085M7.2915 3.125V5.2085H5.2085" stroke="#306CFE" stroke-linecap="round" stroke-linejoin="round"/>
</svg>
