<svg width="24" height="24" viewBox="0 0 24 24" fill="none" xmlns="http://www.w3.org/2000/svg">
<path d="M21 10.12H14.22L16.96 7.3C14.23 4.6 9.81 4.5 7.08 7.2C6.4314 7.84059 5.91644 8.60358 5.56496 9.44471C5.21349 10.2858 5.03251 11.1884 5.03251 12.1C5.03251 13.0116 5.21349 13.9142 5.56496 14.7553C5.91644 15.5964 6.4314 16.3594 7.08 17C9.81 19.7 14.23 19.7 16.96 17C18.32 15.65 19 14.08 19 12.1H21C21 14.08 20.12 16.65 18.36 18.39C14.85 21.87 9.15 21.87 5.64 18.39C2.14 14.92 2.11 9.28 5.62 5.81C7.30291 4.14275 9.57605 3.2074 11.945 3.2074C14.314 3.2074 16.5871 4.14275 18.27 5.81L21 3V10.12ZM12.5 8V12.25L16 14.33L15.28 15.54L11 13V8H12.5Z" fill="black"/>
</svg>
