<svg xmlns="http://www.w3.org/2000/svg" xmlns:xlink="http://www.w3.org/1999/xlink" fill="none" version="1.1" width="14" height="14" viewBox="0 0 14 14"><defs><clipPath id="master_svg0_8_810"><rect x="0" y="0" width="14" height="14" rx="0"/></clipPath></defs><g clip-path="url(#master_svg0_8_810)"><g transform="matrix(1,0,0,-1,0,28.6015625)"><g><path d="M0,26.55078125Q0.0282258,27.289081250000002,0.53629,27.78128125Q1.04435,28.27348125,1.80645,28.30078125L6.32258,28.30078125L6.32258,24.80078125Q6.32258,24.41798125,6.57661,24.171871250000002Q6.83065,23.92578125,7.22581,23.92578125L10.8387,23.92578125L10.8387,19.98828125L4.96774,19.98828125Q4.20565,19.96094125,3.69758,19.46875125Q3.18952,18.97656125,3.16129,18.23828125L3.16129,14.30078125L1.80645,14.30078125Q1.04435,14.32812505,0.53629,14.82031225Q0.0282258,15.31250125,0,16.05078125L0,26.55078125ZM10.8387,24.80078125L7.22581,24.80078125L10.8387,24.80078125L7.22581,24.80078125L7.22581,28.30078125L10.8387,24.80078125ZM4.96774,18.67578125L5.87097,18.67578125L4.96774,18.67578125L5.87097,18.67578125Q6.54839,18.64844125,7,18.23828125Q7.42339,17.80078125,7.45161,17.14453125Q7.42339,16.48828125,7,16.05078125Q6.54839,15.64062125,5.87097,15.61328125L5.41935,15.61328125L5.41935,14.73828125Q5.39113,14.32812505,4.96774,14.30078125Q4.54435,14.32812505,4.51613,14.73828125L4.51613,16.05078125L4.51613,18.23828125Q4.54435,18.64844125,4.96774,18.67578125ZM5.87097,16.48828125Q6.49194,16.54297125,6.54839,17.14453125Q6.49194,17.74609125,5.87097,17.80078125L5.41935,17.80078125L5.41935,16.48828125L5.87097,16.48828125ZM8.58064,18.67578125L9.48387,18.67578125L8.58064,18.67578125L9.48387,18.67578125Q10.0484,18.64844125,10.4435,18.29297125Q10.8105,17.91015125,10.8387,17.36328125L10.8387,15.61328125Q10.8105,15.06640625,10.4435,14.68359325Q10.0484,14.32812505,9.48387,14.30078125L8.58064,14.30078125Q8.15726,14.32812505,8.12903,14.73828125L8.12903,18.23828125Q8.15726,18.64844125,8.58064,18.67578125ZM9.48387,15.17578125Q9.90726,15.20312525,9.93548,15.61328125L9.93548,17.36328125Q9.90726,17.77344125,9.48387,17.80078125L9.03226,17.80078125L9.03226,15.17578125L9.48387,15.17578125ZM11.7419,18.23828125Q11.7702,18.64844125,12.1935,18.67578125L13.5484,18.67578125Q13.9718,18.64844125,14,18.23828125Q13.9718,17.82812125,13.5484,17.80078125L12.6452,17.80078125L12.6452,16.92578125L13.5484,16.92578125Q13.9718,16.89844125,14,16.48828125Q13.9718,16.07812125,13.5484,16.05078125L12.6452,16.05078125L12.6452,14.73828125Q12.6169,14.32812505,12.1935,14.30078125Q11.7702,14.32812505,11.7419,14.73828125L11.7419,16.48828125L11.7419,18.23828125Z" fill="#FFFFFF" fill-opacity="1" style="mix-blend-mode:passthrough"/></g></g></g></svg>