<svg width="62" height="62" viewBox="0 0 62 62" fill="none" xmlns="http://www.w3.org/2000/svg">
<path fill-rule="evenodd" clip-rule="evenodd" d="M28.365 0.112287C33.7153 -0.344328 39.0924 0.596716 43.9696 2.84324C48.8468 5.08976 53.0569 8.56472 56.1875 12.9277V6.78158C56.1875 6.01074 56.4937 5.27148 57.0387 4.72642C57.5838 4.18136 58.323 3.87515 59.0938 3.87515C59.8645 3.87515 60.6037 4.18136 61.1488 4.72642C61.6938 5.27148 62 6.01074 62 6.78158V23.2513H45.5312C44.7605 23.2513 44.0213 22.9451 43.4762 22.4001C42.9312 21.855 42.625 21.1158 42.625 20.3449C42.625 19.5741 42.9312 18.8348 43.4762 18.2898C44.0213 17.7447 44.7605 17.4385 45.5312 17.4385H52.2234C49.5733 13.2916 45.7666 10.0119 41.2735 8.00456C36.7804 5.99719 31.7976 5.35009 26.9409 6.14318C22.0841 6.93628 17.566 9.13482 13.9447 12.4672C10.3235 15.7997 7.75766 20.12 6.56425 24.8945C6.47622 25.2695 6.31451 25.6233 6.08853 25.9353C5.86254 26.2473 5.57679 26.5112 5.24789 26.7118C4.91899 26.9124 4.5535 27.0455 4.17267 27.1036C3.79184 27.1616 3.40328 27.1433 3.02957 27.0498C2.65587 26.9563 2.30448 26.7895 1.99583 26.5589C1.68719 26.3284 1.42745 26.0388 1.23173 25.707C1.036 25.3752 0.908189 25.0078 0.855725 24.6261C0.803261 24.2445 0.827192 23.8562 0.926125 23.4839C2.49373 17.2154 5.98068 11.5934 10.8996 7.40374C15.8185 3.21408 21.9234 0.666178 28.3611 0.116163L28.365 0.112287ZM15.19 57.6674C19.3439 60.1296 24.0156 61.5874 28.8326 61.9244C33.6497 62.2614 38.4788 61.4685 42.9351 59.6087C47.3914 57.7489 51.3517 54.8737 54.5002 51.2123C57.6487 47.5509 59.8984 43.2046 61.07 38.5198C61.2445 37.7765 61.1195 36.9944 60.722 36.3426C60.3246 35.6907 59.6866 35.2214 58.946 35.0361C58.2054 34.8508 57.4216 34.9644 56.764 35.3523C56.1065 35.7402 55.6279 36.3713 55.4319 37.1092C54.2378 41.8827 51.6719 46.2019 48.0509 49.5335C44.43 52.865 39.9126 55.063 35.0567 55.8561C30.2007 56.6491 25.2188 56.0024 20.7262 53.9959C16.2337 51.9893 12.4271 48.7108 9.77662 44.5652H16.4688C17.2395 44.5652 17.9788 44.259 18.5238 43.7139C19.0688 43.1688 19.375 42.4296 19.375 41.6587C19.375 40.8879 19.0688 40.1486 18.5238 39.6036C17.9788 39.0585 17.2395 38.7523 16.4688 38.7523H0V55.2221C0 55.9929 0.306193 56.7322 0.851221 57.2772C1.39625 57.8223 2.13546 58.1285 2.90625 58.1285C3.67704 58.1285 4.41625 57.8223 4.96128 57.2772C5.50631 56.7322 5.8125 55.9929 5.8125 55.2221V49.0759C8.31103 52.5571 11.504 55.4824 15.19 57.6674Z" fill="#04215E"/>
</svg>
