<svg width="96" height="96" viewBox="0 0 96 96" fill="none" xmlns="http://www.w3.org/2000/svg">
<path d="M75.1293 17.8062C74.9056 17.6682 74.6479 17.5947 74.3852 17.5947H31.9569C28.3093 17.5947 25.3417 20.5333 25.3417 24.1348L25.0924 60.6719H17.4248C16.6378 60.6719 16 61.3097 16 62.0967V68.6791C16.005 73.5127 19.922 77.4298 24.7557 77.4353C24.8536 77.4353 24.9522 77.4253 25.0484 77.4053H60.448C60.6589 77.4203 60.8715 77.4303 61.0858 77.4303C65.9946 77.4214 69.9695 73.4409 69.9712 68.5321V47.1739H79.5751C80.362 47.1739 80.9998 46.536 80.9998 45.7491V24.5989C80.9826 21.1979 78.492 18.3155 75.1293 17.8062ZM18.8496 68.6796V63.522H52.2004V68.5327C52.1988 70.765 53.0386 72.9156 54.553 74.5557H24.5609C24.4936 74.5563 24.4268 74.5613 24.3605 74.5713C21.2611 74.3604 18.8534 71.7863 18.8496 68.6796ZM67.1216 24.5989V68.5321C67.1189 70.125 66.4861 71.6511 65.3613 72.7781C64.2843 73.8828 62.8212 74.5279 61.2795 74.5769C61.2027 74.5635 61.1248 74.5568 61.0463 74.5563H60.5454C57.4421 74.2507 55.0706 71.6516 55.05 68.5333V62.0967C55.05 61.3103 54.4122 60.6719 53.6252 60.6719H27.942L28.1913 24.1448C28.2119 22.0844 29.896 20.4287 31.9569 20.4443H68.537C67.6192 21.6347 67.1211 23.0957 67.1216 24.5989ZM78.1503 44.3243H69.9712V24.5989C70.0085 22.3666 71.8284 20.5773 74.0607 20.5773C76.2931 20.5773 78.113 22.3666 78.1503 24.5989V44.3243Z" fill="#610146"/>
<path d="M34.2922 33.0302H47.7864C48.5734 33.0302 49.2112 32.3924 49.2112 31.6054C49.2112 30.8185 48.5734 30.1807 47.7864 30.1807H34.2922C33.5052 30.1807 32.8674 30.8185 32.8674 31.6054C32.8674 32.3924 33.5052 33.0302 34.2922 33.0302Z" fill="#610146"/>
<path d="M59.464 40.3678H34.2922C33.5052 40.3678 32.8674 41.0056 32.8674 41.7926C32.8674 42.579 33.5052 43.2174 34.2922 43.2174H59.464C60.251 43.2174 60.8888 42.579 60.8888 41.7926C60.8888 41.0056 60.251 40.3678 59.464 40.3678Z" fill="#610146"/>
<path d="M59.464 50.5544H34.2922C33.5052 50.5544 32.8674 51.1927 32.8674 51.9792C32.8674 52.7661 33.5052 53.4039 34.2922 53.4039H59.464C60.251 53.4039 60.8888 52.7661 60.8888 51.9792C60.8888 51.1927 60.251 50.5544 59.464 50.5544Z" fill="#610146"/>
</svg>
