<svg width="24" height="24" viewBox="0 0 24 24" fill="none" xmlns="http://www.w3.org/2000/svg">
<path d="M14 7C14 7.53043 13.7893 8.03914 13.4142 8.41421C13.0391 8.78929 12.5304 9 12 9C11.4696 9 10.9609 8.78929 10.5858 8.41421C10.2107 8.03914 10 7.53043 10 7C10 6.46957 10.2107 5.96086 10.5858 5.58579C10.9609 5.21071 11.4696 5 12 5C12.5304 5 13.0391 5.21071 13.4142 5.58579C13.7893 5.96086 14 6.46957 14 7Z" stroke="black" stroke-width="1.5"/>
<path d="M18 10C18 10 14.463 11.5 12 11.5C9.537 11.5 6 10 6 10M12 12V13.452M12 13.452C11.9997 14.0275 12.165 14.5908 12.476 15.075L15 19M12 13.452C12.0003 14.0275 11.835 14.5908 11.524 15.075L9 19" stroke="black" stroke-width="1.5" stroke-linecap="round"/>
<path d="M7 3.33801C8.51945 2.45874 10.2445 1.99712 12 2.00001C17.523 2.00001 22 6.47701 22 12C22 17.523 17.523 22 12 22C6.477 22 2 17.523 2 12C2 10.179 2.487 8.47001 3.338 7.00001" stroke="black" stroke-width="1.5" stroke-linecap="round"/>
</svg>
