<svg width="24" height="24" viewBox="0 0 24 24" fill="none" xmlns="http://www.w3.org/2000/svg">
<path fill-rule="evenodd" clip-rule="evenodd" d="M21.532 11.586L20.75 10.96V21.25H22C22.1989 21.25 22.3897 21.329 22.5303 21.4696C22.671 21.6103 22.75 21.8011 22.75 22C22.75 22.1989 22.671 22.3897 22.5303 22.5303C22.3897 22.671 22.1989 22.75 22 22.75H2C1.80109 22.75 1.61032 22.671 1.46967 22.5303C1.32902 22.3897 1.25 22.1989 1.25 22C1.25 21.8011 1.32902 21.6103 1.46967 21.4696C1.61032 21.329 1.80109 21.25 2 21.25H3.25V10.96L2.469 11.586C2.39205 11.6475 2.30373 11.6933 2.20908 11.7207C2.11444 11.748 2.01533 11.7565 1.91741 11.7456C1.8195 11.7347 1.72468 11.7046 1.63839 11.6571C1.5521 11.6095 1.47602 11.5454 1.4145 11.4685C1.35298 11.3915 1.30721 11.3032 1.27982 11.2086C1.25243 11.1139 1.24394 11.0148 1.25486 10.9169C1.26577 10.819 1.29586 10.7242 1.34341 10.6379C1.39096 10.5516 1.45505 10.4755 1.532 10.414L9.657 3.91398C10.322 3.38184 11.1483 3.09192 12 3.09192C12.8517 3.09192 13.678 3.38184 14.343 3.91398L22.468 10.414C22.5463 10.475 22.6117 10.5509 22.6604 10.6374C22.7091 10.7238 22.7402 10.8191 22.7518 10.9177C22.7635 11.0162 22.7554 11.1161 22.7281 11.2115C22.7009 11.307 22.655 11.396 22.593 11.4736C22.5311 11.5511 22.4544 11.6156 22.3674 11.6633C22.2803 11.711 22.1847 11.7409 22.086 11.7514C21.9873 11.7618 21.8875 11.7526 21.7924 11.7242C21.6973 11.6958 21.6088 11.6488 21.532 11.586ZM12 6.74998C11.2707 6.74998 10.5712 7.03971 10.0555 7.55543C9.53973 8.07116 9.25 8.77063 9.25 9.49998C9.25 10.2293 9.53973 10.9288 10.0555 11.4445C10.5712 11.9602 11.2707 12.25 12 12.25C12.7293 12.25 13.4288 11.9602 13.9445 11.4445C14.4603 10.9288 14.75 10.2293 14.75 9.49998C14.75 8.77063 14.4603 8.07116 13.9445 7.55543C13.4288 7.03971 12.7293 6.74998 12 6.74998ZM13.746 13.312C13.287 13.25 12.714 13.25 12.049 13.25H11.951C11.286 13.25 10.713 13.25 10.254 13.312C9.763 13.378 9.291 13.527 8.909 13.909C8.527 14.291 8.378 14.763 8.312 15.254C8.25 15.713 8.25 16.286 8.25 16.951V21.25H15.75V16.827C15.75 16.215 15.746 15.684 15.688 15.254C15.622 14.763 15.473 14.291 15.091 13.909C14.709 13.527 14.238 13.378 13.746 13.312Z" fill="black"/>
<g opacity="0.5">
<path d="M10.75 9.5C10.75 9.16848 10.8817 8.85054 11.1161 8.61612C11.3505 8.3817 11.6685 8.25 12 8.25C12.3315 8.25 12.6495 8.3817 12.8839 8.61612C13.1183 8.85054 13.25 9.16848 13.25 9.5C13.25 9.83152 13.1183 10.1495 12.8839 10.3839C12.6495 10.6183 12.3315 10.75 12 10.75C11.6685 10.75 11.3505 10.6183 11.1161 10.3839C10.8817 10.1495 10.75 9.83152 10.75 9.5" fill="black"/>
<path d="M10.75 9.5C10.75 9.16848 10.8817 8.85054 11.1161 8.61612C11.3505 8.3817 11.6685 8.25 12 8.25C12.3315 8.25 12.6495 8.3817 12.8839 8.61612C13.1183 8.85054 13.25 9.16848 13.25 9.5C13.25 9.83152 13.1183 10.1495 12.8839 10.3839C12.6495 10.6183 12.3315 10.75 12 10.75C11.6685 10.75 11.3505 10.6183 11.1161 10.3839C10.8817 10.1495 10.75 9.83152 10.75 9.5" fill="black"/>
</g>
<path opacity="0.5" d="M12.05 13.25C12.714 13.25 13.287 13.25 13.746 13.312C14.238 13.378 14.709 13.527 15.091 13.909C15.473 14.291 15.622 14.762 15.688 15.254C15.746 15.684 15.75 16.214 15.75 16.827V21.25H8.25V16.95C8.25 16.286 8.25 15.713 8.312 15.254C8.378 14.762 8.527 14.291 8.909 13.909C9.291 13.527 9.763 13.378 10.254 13.312C10.713 13.25 11.286 13.25 11.951 13.25H12.05ZM16 3H18.5C18.6326 3 18.7598 3.05268 18.8536 3.14645C18.9473 3.24021 19 3.36739 19 3.5V7.64L15.5 4.84V3.5C15.5 3.36739 15.5527 3.24021 15.6464 3.14645C15.7402 3.05268 15.8674 3 16 3Z" fill="black"/>
</svg>
