<svg width="14" height="16" viewBox="0 0 14 16" fill="none" xmlns="http://www.w3.org/2000/svg">
<path d="M1 14.385H4.692V9.308C4.692 9.07933 4.76967 8.88767 4.925 8.733C5.07967 8.57767 5.27133 8.5 5.5 8.5H8.5C8.72867 8.5 8.92067 8.57767 9.076 8.733C9.23067 8.88767 9.308 9.07933 9.308 9.308V14.385H13V5.693C13 5.59033 12.9777 5.497 12.933 5.413C12.8883 5.329 12.8273 5.25567 12.75 5.193L7.366 1.135C7.26333 1.04567 7.14133 1.001 7 1.001C6.85867 1.001 6.737 1.04567 6.635 1.135L1.25 5.193C1.17333 5.257 1.11233 5.33033 1.067 5.413C1.02167 5.49567 0.999333 5.589 1 5.693V14.385ZM0 14.385V5.693C0 5.437 0.0573333 5.19467 0.172 4.966C0.286667 4.73733 0.444667 4.549 0.646 4.401L6.031 0.323C6.313 0.107667 6.635 0 6.997 0C7.359 0 7.683 0.107667 7.969 0.323L13.354 4.4C13.556 4.548 13.714 4.73667 13.828 4.966C13.9427 5.19467 14 5.437 14 5.693V14.385C14 14.653 13.9003 14.8867 13.701 15.086C13.5017 15.2853 13.268 15.385 13 15.385H9.116C8.88667 15.385 8.69467 15.3077 8.54 15.153C8.38533 14.9977 8.308 14.8057 8.308 14.577V9.501H5.692V14.577C5.692 14.8063 5.61467 14.9983 5.46 15.153C5.30533 15.3077 5.11367 15.385 4.885 15.385H1C0.732 15.385 0.498333 15.2853 0.299 15.086C0.0996664 14.8867 0 14.653 0 14.385Z" fill="white"/>
</svg>
